<?xml version="1.0" encoding="UTF-8" standalone="no"?>
<svg
   xmlns:dc="http://purl.org/dc/elements/1.1/"
   xmlns:cc="http://creativecommons.org/ns#"
   xmlns:rdf="http://www.w3.org/1999/02/22-rdf-syntax-ns#"
   xmlns:svg="http://www.w3.org/2000/svg"
   xmlns="http://www.w3.org/2000/svg"
   xml:space="preserve"
   enable-background="new 0 0 1224 792"
   viewBox="0 0 1539.709 440"
   height="440"
   width="1539.709"
   y="0px"
   x="0px"
   id="Layer_1"
   version="1.1"><metadata
     id="metadata51"><rdf:RDF><cc:Work
         rdf:about=""><dc:format>image/svg+xml</dc:format><dc:type
           rdf:resource="http://purl.org/dc/dcmitype/StillImage" /><dc:title></dc:title></cc:Work></rdf:RDF></metadata><defs
     id="defs49" /><g
     transform="translate(-85.519012,-103)"
     id="g25"><line
       stroke-miterlimit="25"
       x1="203.519"
       y1="376.5"
       x2="411.358"
       y2="376"
       id="line27"
       style="fill:none;stroke:#d36149;stroke-width:30;stroke-linejoin:round;stroke-miterlimit:25" /><rect
       x="283.51901"
       y="310.00101"
       width="42"
       height="63.999001"
       id="rect29"
       style="fill:#d36149" /><circle
       stroke-miterlimit="25"
       cx="305.51901"
       cy="323"
       r="205"
       id="circle31"
       style="fill:none;stroke:#d36149;stroke-width:30;stroke-linejoin:round;stroke-miterlimit:25" /><path
       stroke-miterlimit="25"
       d="M 200.519,360.74 C 198.298,465.82 161.01,475.51 161.01,475.51"
       id="path33"
       style="fill:none;stroke:#d36149;stroke-width:30;stroke-linejoin:round;stroke-miterlimit:25" /><g
       id="g35"><polyline
         stroke-miterlimit="25"
         points="245.519,243 285.519,243 285.519,224      318.519,224    "
         id="polyline37"
         style="fill:none;stroke:#d36149;stroke-width:24;stroke-miterlimit:25" /><polyline
         stroke-miterlimit="25"
         points="222.519,371 222.519,295 194.519,283      194.519,224 235.519,224 235.519,243 255.519,243    "
         id="polyline39"
         style="fill:none;stroke:#d36149;stroke-width:24;stroke-miterlimit:25" /><polyline
         stroke-miterlimit="25"
         points="341.519,243 326.519,243 326.519,224      300.519,224    "
         id="polyline41"
         style="fill:none;stroke:#d36149;stroke-width:24;stroke-miterlimit:25" /><polyline
         stroke-miterlimit="25"
         points="389.519,371 389.519,295 417.519,283      417.519,224 375.519,224 375.519,243 337.519,243    "
         id="polyline43"
         style="fill:none;stroke:#d36149;stroke-width:24;stroke-miterlimit:25" /></g><path
       stroke-miterlimit="25"
       d="m 412.519,360.74 c 2.221,105.08 38,114.26 38,114.26"
       id="path45"
       style="fill:none;stroke:#d36149;stroke-width:30;stroke-linejoin:round;stroke-miterlimit:25" /></g><g
     transform="translate(112.23982,26.822123)"
     id="g4244"><g
       id="g4200"
       transform="matrix(2.444181,0,0,2.444181,374.32541,-1054.3578)"
       style="fill:#ffffff"><g
         transform="translate(-85.519012,-103)"
         id="g5"
         style="fill:#000000"><path
           stroke-miterlimit="10"
           d="M 125.769,580"
           id="path7"
           style="fill:#000000;stroke:#a17342;stroke-width:9.98999977;stroke-miterlimit:10" /></g><path
         d="m 2.023988,469.603 48.878,0 0,12.167 -32.621,0 0,22.67 30.418,0 0,12.587 -30.418,0 0,32.306 -16.257,0 0,-79.73 z"
         id="path9"
         style="fill:#000000" /><path
         d="m 77.570988,495.104 c 19.194,0 27.480002,13.006 27.480002,27.796 0,14.894 -8.601002,28.319 -27.796002,28.319 -15.104,0 -27.061,-9.335 -27.061,-27.9 0.001,-12.796 6.504,-28.215 27.377,-28.215 z m 0.209,45.312 c 6.818,0 11.434,-4.09 11.434,-18.146 0,-7.027 -1.364,-16.782 -11.643,-16.782 -11.328,0 -11.434,13.111 -11.434,17.937 0.001,11.852 3.987,16.991 11.643,16.991 z"
         id="path11"
         style="fill:#000000" /><path
         d="m 111.45199,509.369 c 0,-2.518 -0.419,-10.174 -0.733,-13.216 l 14.579,0 0.314,10.174 c 1.993,-4.51 5.454,-10.908 18.041,-10.278 l 0,10.952 c -15.733,-1.469 -16.677,9.605 -16.677,16.214 l 0,26.117 -15.524,0 0,-39.963 z"
         id="path13"
         style="fill:#000000" /><path
         d="m 148.39799,496.678 0,-14.384 15.419,-5.664 0,20.048 12.586,0 0,10.279 -12.586,0 0,23.914 c 0.104,4.825 0.104,7.867 7.027,7.867 2.308,0 3.356,-0.104 5.244,-0.314 l 0,10.174 c -5.034,1.363 -9.545,1.679 -12.062,1.679 -15.628,0 -15.628,-9.86 -15.628,-14.266 l 0,-29.054"
         id="path15"
         style="fill:#000000" /><path
         d="m 190.45999,469.497 26.537,0 16.048,59.172 17.307,-59.172 25.803,0 0,79.835 -16.152,0 0,-69.031 -20.663,69.031 -13.426,0 -20.244,-69.031 0,69.031 -15.209,0 0,-79.835 z"
         id="path17"
         style="fill:#000000" /><path
         d="m 297.24099,526.781 c 0,3.461 0,14.16 10.804,14.16 3.881,0 7.762,-1.469 9.229,-7.343 l 14.16,0 c -0.21,2.518 -0.734,7.027 -5.034,11.538 -3.881,4.091 -10.804,6.188 -18.565,6.188 -4.511,0 -13.111,-0.84 -18.671,-6.608 -4.824,-5.034 -6.817,-12.167 -6.817,-20.663 0,-8.601 2.098,-18.88 11.014,-25.068 4.091,-2.728 9.125,-4.405 14.894,-4.405 7.553,0 16.573,2.937 21.397,12.797 3.566,7.237 3.356,14.999 3.146,19.404 l -35.557,0 z m 19.719,-9.755 c 0,-2.412 -0.21,-11.853 -9.23,-11.853 -6.817,0 -9.649,5.664 -9.964,11.853 l 19.194,0 z"
         id="path19"
         style="fill:#000000" /><path
         d="m 348.63999,534.019 c 0.21,3.356 2.308,7.237 8.811,7.237 5.56,0 8.182,-3.146 8.182,-6.294 0,-2.412 -1.259,-4.3 -7.342,-5.979 l -9.65,-2.622 c -4.3,-1.259 -13.426,-3.881 -13.426,-14.685 0,-10.279 9.44,-16.572 23.181,-16.572 10.908,0 19.719,5.034 20.139,15.628 l -14.16,0 c -0.419,-5.873 -5.14,-6.293 -7.552,-6.293 -4.195,0 -7.343,1.993 -7.343,5.244 0,3.566 2.623,4.301 7.238,5.56 l 9.545,2.622 c 9.649,2.622 14.159,7.552 14.159,14.789 0,9.126 -7.866,18.251 -24.334,18.251 -6.817,0 -13.321,-1.469 -18.146,-6.503 -3.462,-3.671 -3.776,-7.867 -3.881,-10.384 l 14.579,0 z"
         id="path21"
         style="fill:#000000" /><path
         d="m 416.81999,549.332 c -0.524,-3.252 -0.524,-5.664 -0.524,-7.237 -5.873,8.496 -12.901,8.496 -15.838,8.496 -7.657,0 -11.118,-2.203 -13.216,-4.195 -3.146,-3.147 -4.615,-7.447 -4.615,-11.643 0,-4.196 1.469,-11.958 11.224,-16.468 6.503,-2.938 15.838,-2.938 20.978,-2.938 0,-3.461 -0.105,-5.14 -0.734,-7.027 -1.363,-3.881 -5.454,-4.405 -6.923,-4.405 -2.202,0 -4.51,0.944 -5.874,2.937 -1.153,1.783 -1.153,3.462 -1.153,4.721 l -15.209,0 c 0.104,-2.832 0.42,-8.496 5.979,-12.482 4.825,-3.461 11.014,-4.3 16.048,-4.3 4.405,0 13.636,0.734 18.88,6.817 3.566,4.301 3.672,10.594 3.672,13.007 l 0.104,21.292 c 0,4.51 0.314,9.021 1.259,13.426 l -14.058,0 z m -19.089,-16.362 c 0,3.565 2.412,7.552 7.552,7.552 2.832,0 5.14,-1.363 6.607,-3.042 2.728,-3.356 2.938,-7.447 2.938,-13.111 -9.965,-0.84 -17.097,2.307 -17.097,8.601 z"
         id="path23"
         style="fill:#000000" /></g></g></svg>